<svg width="208" height="68" viewBox="0 0 208 68" fill="none" xmlns="http://www.w3.org/2000/svg">
<path d="M11.268 33.432C9.252 33.432 7.32 33.168 5.472 32.64C3.624 32.088 2.136 31.38 1.008 30.516L2.988 26.124C4.068 26.892 5.34 27.528 6.804 28.032C8.292 28.512 9.792 28.752 11.304 28.752C12.456 28.752 13.38 28.644 14.076 28.428C14.796 28.188 15.324 27.864 15.66 27.456C15.996 27.048 16.164 26.58 16.164 26.052C16.164 25.38 15.9 24.852 15.372 24.468C14.844 24.06 14.148 23.736 13.284 23.496C12.42 23.232 11.46 22.992 10.404 22.776C9.372 22.536 8.328 22.248 7.272 21.912C6.24 21.576 5.292 21.144 4.428 20.616C3.564 20.088 2.856 19.392 2.304 18.528C1.776 17.664 1.512 16.56 1.512 15.216C1.512 13.776 1.896 12.468 2.664 11.292C3.456 10.092 4.632 9.144 6.192 8.448C7.776 7.728 9.756 7.368 12.132 7.368C13.716 7.368 15.276 7.56 16.812 7.944C18.348 8.304 19.704 8.856 20.88 9.6L19.08 14.028C17.904 13.356 16.728 12.864 15.552 12.552C14.376 12.216 13.224 12.048 12.096 12.048C10.968 12.048 10.044 12.18 9.324 12.444C8.604 12.708 8.088 13.056 7.776 13.488C7.464 13.896 7.308 14.376 7.308 14.928C7.308 15.576 7.572 16.104 8.1 16.512C8.628 16.896 9.324 17.208 10.188 17.448C11.052 17.688 12 17.928 13.032 18.168C14.088 18.408 15.132 18.684 16.164 18.996C17.22 19.308 18.18 19.728 19.044 20.256C19.908 20.784 20.604 21.48 21.132 22.344C21.684 23.208 21.96 24.3 21.96 25.62C21.96 27.036 21.564 28.332 20.772 29.508C19.98 30.684 18.792 31.632 17.208 32.352C15.648 33.072 13.668 33.432 11.268 33.432ZM24.945 33L24.945 7.8L30.777 7.8L30.777 33H24.945ZM35.7575 33L35.7575 7.8L40.5815 7.8L51.3095 25.584L48.7535 25.584L59.3015 7.8L64.0895 7.8L64.1615 33H58.6895L58.6535 16.188H59.6615L51.2375 30.336L48.6095 30.336L40.0055 16.188H41.2295V33H35.7575ZM65.8283 33L77.0603 7.8L82.8203 7.8L94.0883 33H87.9683L78.7523 10.752H81.0563L71.8043 33H65.8283ZM71.4443 27.6L72.9923 23.172L85.9523 23.172L87.5363 27.6L71.4443 27.6ZM95.7028 33L95.7028 7.8L100.527 7.8L115.395 25.944H113.055V7.8L118.815 7.8L118.815 33H114.027L99.1228 14.856H101.463L101.463 33H95.7028ZM123.777 33L123.777 7.8L135.225 7.8C137.961 7.8 140.373 8.328 142.461 9.384C144.549 10.416 146.181 11.868 147.357 13.74C148.533 15.612 149.121 17.832 149.121 20.4C149.121 22.944 148.533 25.164 147.357 27.06C146.181 28.932 144.549 30.396 142.461 31.452C140.373 32.484 137.961 33 135.225 33L123.777 33ZM129.609 28.212H134.937C136.617 28.212 138.069 27.9 139.293 27.276C140.541 26.628 141.501 25.716 142.173 24.54C142.869 23.364 143.217 21.984 143.217 20.4C143.217 18.792 142.869 17.412 142.173 16.26C141.501 15.084 140.541 14.184 139.293 13.56C138.069 12.912 136.617 12.588 134.937 12.588L129.609 12.588V28.212ZM164.759 33.432C162.767 33.432 160.919 33.108 159.215 32.46C157.535 31.812 156.071 30.9 154.823 29.724C153.599 28.548 152.639 27.168 151.943 25.584C151.271 24 150.935 22.272 150.935 20.4C150.935 18.528 151.271 16.8 151.943 15.216C152.639 13.632 153.611 12.252 154.859 11.076C156.107 9.9 157.571 8.988 159.251 8.34C160.931 7.692 162.755 7.368 164.723 7.368C166.715 7.368 168.539 7.692 170.195 8.34C171.875 8.988 173.327 9.9 174.551 11.076C175.799 12.252 176.771 13.632 177.467 15.216C178.163 16.776 178.511 18.504 178.511 20.4C178.511 22.272 178.163 24.012 177.467 25.62C176.771 27.204 175.799 28.584 174.551 29.76C173.327 30.912 171.875 31.812 170.195 32.46C168.539 33.108 166.727 33.432 164.759 33.432ZM164.723 28.464C165.851 28.464 166.883 28.272 167.819 27.888C168.779 27.504 169.619 26.952 170.339 26.232C171.059 25.512 171.611 24.66 171.995 23.676C172.403 22.692 172.607 21.6 172.607 20.4C172.607 19.2 172.403 18.108 171.995 17.124C171.611 16.14 171.059 15.288 170.339 14.568C169.643 13.848 168.815 13.296 167.855 12.912C166.895 12.528 165.851 12.336 164.723 12.336C163.595 12.336 162.551 12.528 161.591 12.912C160.655 13.296 159.827 13.848 159.107 14.568C158.387 15.288 157.823 16.14 157.415 17.124C157.031 18.108 156.839 19.2 156.839 20.4C156.839 21.576 157.031 22.668 157.415 23.676C157.823 24.66 158.375 25.512 159.071 26.232C159.791 26.952 160.631 27.504 161.591 27.888C162.551 28.272 163.595 28.464 164.723 28.464ZM193.09 33.432C189.514 33.432 186.718 32.436 184.702 30.444C182.686 28.452 181.678 25.608 181.678 21.912V7.8L187.51 7.8V21.696C187.51 24.096 188.002 25.824 188.986 26.88C189.97 27.936 191.35 28.464 193.126 28.464C194.902 28.464 196.282 27.936 197.266 26.88C198.25 25.824 198.742 24.096 198.742 21.696V7.8L204.502 7.8V21.912C204.502 25.608 203.494 28.452 201.478 30.444C199.462 32.436 196.666 33.432 193.09 33.432Z" fill="#228C22"/>
<path d="M63.092 61.24C61.972 61.24 60.8987 61.0933 59.872 60.8C58.8454 60.4933 58.0187 60.1 57.392 59.62L58.492 57.18C59.092 57.6067 59.7987 57.96 60.612 58.24C61.4387 58.5067 62.272 58.64 63.112 58.64C63.752 58.64 64.2654 58.58 64.652 58.46C65.052 58.3267 65.3454 58.1467 65.532 57.92C65.7187 57.6933 65.812 57.4333 65.812 57.14C65.812 56.7667 65.6654 56.4733 65.372 56.26C65.0787 56.0333 64.692 55.8533 64.212 55.72C63.732 55.5733 63.1987 55.44 62.612 55.32C62.0387 55.1867 61.4587 55.0267 60.872 54.84C60.2987 54.6533 59.772 54.4133 59.292 54.12C58.812 53.8267 58.4187 53.44 58.112 52.96C57.8187 52.48 57.672 51.8667 57.672 51.12C57.672 50.32 57.8854 49.5933 58.312 48.94C58.752 48.2733 59.4054 47.7467 60.272 47.36C61.152 46.96 62.252 46.76 63.572 46.76C64.452 46.76 65.3187 46.8667 66.172 47.08C67.0254 47.28 67.7787 47.5867 68.432 48L67.432 50.46C66.7787 50.0867 66.1254 49.8133 65.472 49.64C64.8187 49.4533 64.1787 49.36 63.552 49.36C62.9254 49.36 62.412 49.4333 62.012 49.58C61.612 49.7267 61.3254 49.92 61.152 50.16C60.9787 50.3867 60.892 50.6533 60.892 50.96C60.892 51.32 61.0387 51.6133 61.332 51.84C61.6254 52.0533 62.012 52.2267 62.492 52.36C62.972 52.4933 63.4987 52.6267 64.072 52.76C64.6587 52.8933 65.2387 53.0467 65.812 53.22C66.3987 53.3933 66.932 53.6267 67.412 53.92C67.892 54.2133 68.2787 54.6 68.572 55.08C68.8787 55.56 69.032 56.1667 69.032 56.9C69.032 57.6867 68.812 58.4067 68.372 59.06C67.932 59.7133 67.272 60.24 66.392 60.64C65.5254 61.04 64.4254 61.24 63.092 61.24ZM76.2259 52.64H82.9659V55.16H76.2259V52.64ZM76.4659 58.4L84.0859 58.4V61L73.2459 61V47L83.8259 47V49.6H76.4659V58.4ZM76.7259 45.86L79.4259 42.98H82.7859L79.1659 45.86H76.7259ZM91.2439 61.24C90.2972 61.24 89.4239 61.0667 88.6239 60.72C87.8372 60.36 87.1906 59.8533 86.6839 59.2L88.4839 57.04C88.8706 57.5467 89.2772 57.9333 89.7039 58.2C90.1306 58.4533 90.5906 58.58 91.0839 58.58C92.4039 58.58 93.0639 57.8067 93.0639 56.26V49.6H88.1439V47H96.2839V56.08C96.2839 57.8133 95.8572 59.1067 95.0039 59.96C94.1506 60.8133 92.8972 61.24 91.2439 61.24ZM108.284 61.24C107.178 61.24 106.151 61.06 105.204 60.7C104.271 60.34 103.458 59.8333 102.764 59.18C102.084 58.5267 101.551 57.76 101.164 56.88C100.791 56 100.604 55.04 100.604 54C100.604 52.96 100.791 52 101.164 51.12C101.551 50.24 102.091 49.4733 102.784 48.82C103.478 48.1667 104.291 47.66 105.224 47.3C106.158 46.94 107.171 46.76 108.264 46.76C109.371 46.76 110.384 46.94 111.304 47.3C112.238 47.66 113.044 48.1667 113.724 48.82C114.418 49.4733 114.958 50.24 115.344 51.12C115.731 51.9867 115.924 52.9467 115.924 54C115.924 55.04 115.731 56.0067 115.344 56.9C114.958 57.78 114.418 58.5467 113.724 59.2C113.044 59.84 112.238 60.34 111.304 60.7C110.384 61.06 109.378 61.24 108.284 61.24ZM108.264 58.48C108.891 58.48 109.464 58.3733 109.984 58.16C110.518 57.9467 110.984 57.64 111.384 57.24C111.784 56.84 112.091 56.3667 112.304 55.82C112.531 55.2733 112.644 54.6667 112.644 54C112.644 53.3333 112.531 52.7267 112.304 52.18C112.091 51.6333 111.784 51.16 111.384 50.76C110.998 50.36 110.538 50.0533 110.004 49.84C109.471 49.6267 108.891 49.52 108.264 49.52C107.638 49.52 107.058 49.6267 106.524 49.84C106.004 50.0533 105.544 50.36 105.144 50.76C104.744 51.16 104.431 51.6333 104.204 52.18C103.991 52.7267 103.884 53.3333 103.884 54C103.884 54.6533 103.991 55.26 104.204 55.82C104.431 56.3667 104.738 56.84 105.124 57.24C105.524 57.64 105.991 57.9467 106.524 58.16C107.058 58.3733 107.638 58.48 108.264 58.48ZM126.579 61.24C124.593 61.24 123.039 60.6867 121.919 59.58C120.799 58.4733 120.239 56.8933 120.239 54.84V47H123.479V54.72C123.479 56.0533 123.753 57.0133 124.299 57.6C124.846 58.1867 125.613 58.48 126.599 58.48C127.586 58.48 128.353 58.1867 128.899 57.6C129.446 57.0133 129.719 56.0533 129.719 54.72V47L132.919 47V54.84C132.919 56.8933 132.359 58.4733 131.239 59.58C130.119 60.6867 128.566 61.24 126.579 61.24ZM138.121 61V47H144.181C145.434 47 146.514 47.2067 147.421 47.62C148.328 48.02 149.028 48.6 149.521 49.36C150.014 50.12 150.261 51.0267 150.261 52.08C150.261 53.12 150.014 54.02 149.521 54.78C149.028 55.5267 148.328 56.1 147.421 56.5C146.514 56.9 145.434 57.1 144.181 57.1H139.921L141.361 55.68V61H138.121ZM147.021 61L143.521 55.92H146.981L150.521 61H147.021ZM141.361 56.04L139.921 54.52H144.001C145.001 54.52 145.748 54.3067 146.241 53.88C146.734 53.44 146.981 52.84 146.981 52.08C146.981 51.3067 146.734 50.7067 146.241 50.28C145.748 49.8533 145.001 49.64 144.001 49.64H139.921L141.361 48.1V56.04Z" fill="#228C22"/>
</svg>
